<svg width="25" height="23" viewBox="0 0 25 23" fill="none" xmlns="http://www.w3.org/2000/svg">
<path d="M5.99957 6.50049H18.6596C19.6266 6.50049 20.4556 7.19249 20.6286 8.14349L22.5676 18.8095C22.7656 19.8965 22.0446 20.9375 20.9576 21.1355C20.8396 21.1565 20.7196 21.1675 20.5996 21.1675H4.05957C2.95457 21.1675 2.05957 20.2725 2.05957 19.1675C2.05957 19.0475 2.06957 18.9275 2.09157 18.8095L4.03157 8.14349C4.20357 7.19249 5.03257 6.50049 5.99957 6.50049Z" stroke="#4D4D4D" stroke-width="1.5" stroke-linejoin="round"/>
<path d="M9.3291 9.16747V4.75947C9.3291 3.21347 10.6721 1.83447 12.3291 1.83447C13.9861 1.83447 15.3291 3.21347 15.3291 4.75947V9.16747" stroke="#4D4D4D" stroke-width="1.5" stroke-linecap="round" stroke-linejoin="round"/>
</svg>
